<?xml version="1.0" encoding="UTF-8" standalone="no"?>
<!-- Created with Inkscape (http://www.inkscape.org/) -->

<svg
   xmlns:dc="http://purl.org/dc/elements/1.1/"
   xmlns:cc="http://creativecommons.org/ns#"
   xmlns:rdf="http://www.w3.org/1999/02/22-rdf-syntax-ns#"
   xmlns:svg="http://www.w3.org/2000/svg"
   xmlns="http://www.w3.org/2000/svg"
   xmlns:sodipodi="http://sodipodi.sourceforge.net/DTD/sodipodi-0.dtd"
   xmlns:inkscape="http://www.inkscape.org/namespaces/inkscape"
   width="210mm"
   height="297mm"
   id="svg2"
   version="1.1"
   inkscape:version="0.48.4 r9939"
   sodipodi:docname="Documento nuevo 1">
  <defs
     id="defs4" />
  <sodipodi:namedview
     id="base"
     pagecolor="#ffffff"
     bordercolor="#666666"
     borderopacity="1.0"
     inkscape:pageopacity="0.0"
     inkscape:pageshadow="2"
     inkscape:zoom="0.7"
     inkscape:cx="290.8581"
     inkscape:cy="694.74111"
     inkscape:document-units="px"
     inkscape:current-layer="layer1"
     showgrid="false"
     inkscape:window-width="1366"
     inkscape:window-height="745"
     inkscape:window-x="-8"
     inkscape:window-y="-8"
     inkscape:window-maximized="1" />
  <metadata
     id="metadata7">
    <rdf:RDF>
      <cc:Work
         rdf:about="">
        <dc:format>image/svg+xml</dc:format>
        <dc:type
           rdf:resource="http://purl.org/dc/dcmitype/StillImage" />
        <dc:title></dc:title>
      </cc:Work>
    </rdf:RDF>
  </metadata>
  <g
     inkscape:label="Capa 1"
     inkscape:groupmode="layer"
     id="layer1">
    <g
       id="g3002"
       transform="matrix(1.09375,0,0,1.09375,-13.25893,-52.453603)"
       inkscape:export-filename="E:\Escritorio\Remind.me.png"
       inkscape:export-xdpi="90"
       inkscape:export-ydpi="90">
      <rect
         ry="8.4973431"
         rx="17.179653"
         y="102.36218"
         x="141.42857"
         height="457.14285"
         width="457.14285"
         id="rect2998"
         style="fill:#800080;fill-opacity:1;stroke:none" />
      <path
         sodipodi:nodetypes="cccccccccccccccccccccccccccccccccccc"
         inkscape:connector-curvature="0"
         id="path2989"
         d="m 181.23915,524.90301 c 0.498,-49.13998 -1.77481,-66.95189 3.54165,-115.89002 2.13749,-33.59995 3.72911,-67.2256 5.14512,-100.8605 1.19516,-33.78832 -3.42127,-68.34538 4.27606,-101.51892 13.50206,-24.97953 42.55754,-36.62311 68.17827,-45.34937 45.15788,-7.67372 91.33593,-2.63761 136.91213,-4.20266 37.04972,-0.0826 74.20427,-0.73308 110.85996,5.69597 27.76737,-0.59277 45.61565,22.01345 54.6339,45.66386 9.95884,25.20234 14.76437,53.90913 8.37602,80.5309 -7.97896,16.37091 -16.94362,32.26077 -24.3882,48.92114 -18.57429,30.12646 -51.24119,47.35301 -82.9706,60.37002 -30.2056,9.92658 -62.34649,10.38926 -93.79024,12.156 -29.08416,0.15249 -58.19779,-0.94345 -87.09686,2.46492 -27.43344,4.13952 -55.25357,2.90619 -82.82708,3.7888 -12.40221,2.80268 -25.54057,4.22785 -6.31824,-3.80356 18.26763,-14.15007 31.77612,-17.6167 50.75125,-2.9636 29.14091,14.45082 264.17668,50.51988 289.70458,70.2611 5.86179,8.57829 -19.19973,31.44646 -42.60061,16.36498 -26.62581,-20.7676 -263.20297,-57.38638 -295.35147,-69.50643 -20.28009,-5.63349 -12.01821,-15.96118 2.35823,-22.01303 21.84457,-20.0521 53.32034,-11.71821 80.12446,-13.78562 34.76405,-2.68009 69.40017,-7.14339 104.35531,-5.48806 30.50907,0.0943 61.23359,-1.64615 91.25807,-6.98087 9.8794,-1.42737 34.66901,-10.67331 35.40336,-12.07603 -8.16094,4.59694 -30.54709,17.54025 -30.85288,17.65746 19.20579,-12.70666 33.60628,-32.36859 41.20275,-54.12968 9.6075,-15.34443 19.3401,-32.20169 16.17774,-51.13894 -0.0828,-30.0402 -10.73036,-60.61507 -31.09609,-82.86642 -23.12267,-12.70306 -50.83245,-12.01711 -76.47946,-14.40747 -60.48699,0.76628 -121.0663,-1.38848 -181.49708,1.3324 -9.88658,-1.77223 -47.68945,14.9166 -38.55527,11.8012 11.7707,-6.59587 25.70213,-15.03652 36.05525,-20.69905 -20.98832,10.47248 -18.87555,37.95795 -19.41196,58.70967 -0.0763,37.90546 0.83096,75.86523 -3.13143,113.61064 -0.53701,44.69721 -10.05436,129.06429 -8.32128,173.81283 -8.70127,17.9642 -28.21933,23.81175 -34.62536,4.53834 z"
         style="fill:#ffffff;fill-opacity:1;stroke:none" />
      <path
         inkscape:connector-curvature="0"
         d="m 284.56884,245.48942 c -0.70644,10.50775 0.46962,20.98636 1.43404,31.43513 0.79789,9.49514 1.03115,19.02668 1.24993,28.54937 -0.15926,7.33736 1.26315,14.57041 2.11167,21.83041 1.97422,19.97431 2.17597,9.38448 -37.53227,26.17269 -0.2005,0.0848 -1.01333,-2.6381 -1.87107,-5.38508 -1.48239,-7.27425 -2.52172,-14.60195 -3.99352,-21.88534 -1.32075,-7.42311 -1.61918,-14.97308 -1.78139,-22.49523 -0.33731,-7.22953 0.72413,-14.41338 2.4787,-21.40541 2.47136,-8.04574 9.29586,-12.47471 16.04021,-16.73811 19.36543,-10.91095 37.95842,-30.91064 60.2232,-20.21806 7.94884,4.64587 11.15676,13.79736 14.23663,22.01106 3.14618,9.03611 5.1309,18.34936 6.23376,27.83564 0.89962,8.454 1.02227,16.9609 1.13231,25.45373 0.58989,17.65489 -0.18146,9.07737 -38.45919,21.30783 -0.62482,0.19965 -1.3059,-13.73864 -1.36105,-14.76776 -0.24039,-8.95512 -0.95866,-17.93753 -0.43074,-26.89131 0.71186,-7.95492 4.40292,-15.19394 8.72827,-21.76487 15.3964,-14.33107 35.37219,-30.48342 56.39155,-31.60111 9.67801,3.23341 14.38121,11.82154 17.66705,20.84814 2.59248,9.07081 2.94374,18.54531 3.17842,27.91471 -0.39731,7.02261 0.65356,13.90011 1.65302,20.8168 0.12089,0.97282 0.24179,1.94564 0.36269,2.91846 0,0 -37.45599,19.63208 -37.45599,19.63208 l 0,0 c -0.10168,-0.94875 -0.20336,-1.89751 -0.30503,-2.84627 -0.92882,-7.10591 -2.18506,-14.17464 -1.66226,-21.37922 -0.0854,-8.95863 -0.20597,-18.03109 -2.48243,-26.75463 -2.40662,-7.06994 -6.12864,-15.60746 -14.72767,-15.8649 -14.37035,3.60407 -30.45292,16.64533 26.13824,-16.93419 1.14394,-0.67878 -2.42306,1.11632 -3.54879,1.82489 -1.13869,0.71674 -2.13225,1.64207 -3.21916,2.43512 -1.11168,0.81112 -2.25043,1.58445 -3.37564,2.37668 -4.77641,5.42218 -8.27215,12.48526 -9.59531,19.59682 -1.19242,8.74863 -0.18935,17.68739 -0.18345,26.4849 0.20696,3.40163 1.37174,13.60309 1.35631,13.61389 -11.73806,8.21809 -24.66222,14.59626 -36.99333,21.89439 0.23829,-0.296 0.63534,-0.51641 0.71488,-0.88799 0.19723,-0.92134 0.0534,-1.88366 0.08,-2.8255 0.0211,-8.3908 -0.0129,-16.79309 -0.73056,-25.15978 -0.9822,-9.17807 -2.7983,-18.15883 -5.77948,-26.91466 -2.64673,-7.18068 -5.27018,-15.4329 -12.63413,-18.96363 -2.72103,-0.95353 -3.4189,-1.40861 -6.3762,-1.56791 -15.55568,-0.83793 -40.86907,19.54606 20.44043,-16.71426 -6.50867,3.55412 -13.16372,7.16657 -17.15025,13.63881 -1.85184,6.64346 -3.42043,13.4484 -3.12109,20.40148 0.16787,7.28848 0.31279,14.60857 1.54421,21.81344 1.32757,7.13473 2.46164,14.28513 3.8397,21.40126 0.27989,0.85053 0.52358,1.71384 0.83967,2.55159 0.22603,0.59905 1.32523,1.41022 0.78461,1.75326 -48.52231,30.78895 -35.11645,33.4354 -36.70829,14.84018 -0.73181,-7.41891 -2.17986,-14.79363 -2.13584,-22.26266 -0.0414,-9.4652 -0.20412,-18.93414 -0.94651,-28.37485 -0.79547,-10.50739 -2.00776,-20.98772 -2.00801,-31.53629 0,0 37.70911,-19.21374 37.70911,-19.21374 z"
         id="path2991"
         style="fill:#ffffff;fill-opacity:1;stroke:none" />
      <path
         sodipodi:nodetypes="ccssccccsccccccccsscccccccccccc"
         inkscape:connector-curvature="0"
         d="m 439.69602,285.08593 c 10.17144,-1.23213 18.99281,-6.19014 27.85587,-10.91257 -10.82075,6.1805 -21.57663,12.47601 -32.46227,18.54151 -0.99482,0.55432 1.89365,-1.27233 2.77154,-1.99775 3.30037,-2.72718 5.41558,-6.48769 7.42981,-10.18457 2.38025,-5.32522 4.48838,-11.1961 3.36611,-17.0679 -2.45885,-6.56767 -9.66843,-6.21754 -15.6393,-6.85997 -5.47326,-0.46267 -10.98813,-0.98817 -16.25336,0.96337 -1.13765,0.42168 -4.3537,2.13681 -3.30114,1.53333 10.92551,-6.26411 21.95365,-12.34748 32.93048,-18.52123 -7.06639,4.10229 -10.29499,8.15065 -12.22597,16.02457 -2.17041,10.00092 -3.38324,20.19032 -3.37926,30.42185 0.0568,7.62133 2.23096,14.88084 6.32075,21.27383 3.73909,6.00506 8.94059,10.83116 14.74694,14.78188 6.42908,4.92808 14.08733,6.79919 21.96098,7.76528 8.07855,2.49624 13.18401,1.89027 25.82572,-2.18463 l 0,0 c -12.22929,14.41676 -17.05335,17.59448 -42.09126,25.83511 -1.42063,0.46757 -2.86103,0.91416 -4.33937,1.14072 -4.57371,0.70097 -9.20438,-0.21884 -13.75014,-0.59516 -8.36202,-1.44165 -16.27701,-4.14084 -23.12332,-9.33353 -6.15217,-4.41789 -11.58823,-9.76206 -15.69693,-16.16894 -4.39473,-7.08011 -7.00245,-15.0706 -7.12174,-23.45671 -0.29112,-10.42013 0.99093,-20.86207 2.82192,-31.11197 1.27537,-8.5857 3.15468,-14.25372 10.80768,-19.15937 29.52943,-16.93229 33.37789,-26.64721 60.12032,-23.42751 7.99405,1.19891 15.4813,2.66366 18.6516,11.01149 1.75535,6.73684 0.26915,13.32091 -2.21979,19.73322 -9.77944,21.87676 -23.09236,23.20792 -48.84392,37.30139 -9.19039,4.7522 -18.71115,8.70015 -29.08577,9.95181 z"
         id="path2995"
         style="fill:#ffffff;fill-opacity:1;stroke:none" />
      <path
         transform="translate(-5.7142857,-17.142857)"
         d="m 282.85714,498.79074 c 0,11.44018 -9.2741,20.71429 -20.71429,20.71429 -11.44018,0 -20.71428,-9.27411 -20.71428,-20.71429 0,-11.44018 9.2741,-20.71428 20.71428,-20.71428 11.44019,0 20.71429,9.2741 20.71429,20.71428 z"
         sodipodi:ry="20.714285"
         sodipodi:rx="20.714285"
         sodipodi:cy="498.79074"
         sodipodi:cx="262.14285"
         id="path3000"
         style="fill:#ffffff;fill-opacity:1;stroke:none"
         sodipodi:type="arc" />
    </g>
  </g>
</svg>
