<?xml version="1.0" encoding="UTF-8" standalone="no"?>
<!-- Created with Inkscape (http://www.inkscape.org/) -->

<svg
   xmlns:dc="http://purl.org/dc/elements/1.1/"
   xmlns:cc="http://creativecommons.org/ns#"
   xmlns:rdf="http://www.w3.org/1999/02/22-rdf-syntax-ns#"
   xmlns:svg="http://www.w3.org/2000/svg"
   xmlns="http://www.w3.org/2000/svg"
   xmlns:sodipodi="http://sodipodi.sourceforge.net/DTD/sodipodi-0.dtd"
   xmlns:inkscape="http://www.inkscape.org/namespaces/inkscape"
   width="210mm"
   height="297mm"
   id="svg2"
   version="1.1"
   inkscape:version="0.48.4 r9939"
   sodipodi:docname="Remind.me.svg">
  <defs
     id="defs4" />
  <sodipodi:namedview
     id="base"
     pagecolor="#ffffff"
     bordercolor="#666666"
     borderopacity="1.0"
     inkscape:pageopacity="0.0"
     inkscape:pageshadow="2"
     inkscape:zoom="0.49497475"
     inkscape:cx="62.472879"
     inkscape:cy="685.56963"
     inkscape:document-units="px"
     inkscape:current-layer="layer1"
     showgrid="false"
     inkscape:window-width="1366"
     inkscape:window-height="745"
     inkscape:window-x="-8"
     inkscape:window-y="-8"
     inkscape:window-maximized="1" />
  <metadata
     id="metadata7">
    <rdf:RDF>
      <cc:Work
         rdf:about="">
        <dc:format>image/svg+xml</dc:format>
        <dc:type
           rdf:resource="http://purl.org/dc/dcmitype/StillImage" />
        <dc:title></dc:title>
      </cc:Work>
    </rdf:RDF>
  </metadata>
  <g
     inkscape:label="Capa 1"
     inkscape:groupmode="layer"
     id="layer1">
    <rect
       style="fill:#d35fbc;fill-opacity:1;stroke:none"
       id="rect2988"
       width="500"
       height="500"
       x="120.72041"
       y="181.2038"
       inkscape:export-filename="D:\Drive\Documentos\Visual Studio 2013\Projects\Recuerda.me\Recuerda.me\Assets\Remind.me.png"
       inkscape:export-xdpi="90"
       inkscape:export-ydpi="90" />
    <g
       id="g3103"
       transform="translate(1.5016632,6.0698664)"
       inkscape:export-filename="D:\Drive\Documentos\Visual Studio 2013\Projects\Recuerda.me\Recuerda.me\Assets\Remind.me.png"
       inkscape:export-xdpi="90"
       inkscape:export-ydpi="90">
      <path
         sodipodi:nodetypes="ccccccccccccccsssccccccccssscccccccc"
         inkscape:connector-curvature="0"
         id="rect2990"
         d="m 207.84375,207.90625 c -11.97093,6.04266 -21.46195,18.10783 -26.125,33.1881 l 0,123.17517 0,156.36328 0,121.72881 62.5,0 0,-68.52621 c 1.32631,-28.48653 19.46002,-51.33021 42.1875,-53.2026 l 13.46875,0 0.21875,0.15636 c 55.77704,26.90548 101.25159,78.43318 151.38025,120.5623 l 64.65625,0 L 397.1875,533.49368 c 1.53667,-6.03774 5.30826,-10.81026 10.09375,-12.86088 l 24.4375,0 c 69.25,0 125,-69.73802 125,-156.36328 0,-86.62525 -55.75,-156.36327 -125,-156.36327 l -91.0625,0 -33.9375,0 -62.5,0 z m 36.375,78.18164 15.625,0 67.6875,0 22.625,0 60.6875,0 c 46.16665,0 83.375,34.86901 83.375,78.18163 0,43.31263 -37.20835,78.18164 -83.375,78.18164 l -60.6875,0 -3.53125,0 -19.09375,0 -46.6875,0 -36.625,0 0,-66.02439 0,-12.15725 z"
         style="fill:#ffffff;fill-opacity:1;stroke:none" />
      <path
         inkscape:export-ydpi="90"
         inkscape:export-xdpi="90"
         inkscape:export-filename="D:\Drive\Documentos\Visual Studio 2013\Projects\Recuerda.me\Recuerda.me\Assets\path3082.png"
         sodipodi:nodetypes="csssssssccccccccccccccsscccccscccccscccccssccccccccccccccscccsscccccccccccccsccccccccccccccccccccccc"
         inkscape:connector-curvature="0"
         id="path3075"
         d="m 298.19643,325.92857 c -3.99341,0 -7.72531,1.81541 -10.90625,4.9375 -0.5849,0.57408 -1.14174,1.18304 -1.6875,1.84375 -0.54059,0.65446 -1.06384,1.32878 -1.5625,2.0625 -0.49866,0.73372 -0.9843,1.50522 -1.4375,2.3125 -0.9064,1.61456 -1.70282,3.3755 -2.40625,5.25 -0.52757,1.40587 -1.00671,2.87665 -1.40625,4.40625 -1.06544,4.07893 -1.65625,8.57381 -1.65625,13.28125 0,0.59345 0.0127,1.19514 0.0312,1.78125 0.003,0.093 -0.003,0.18845 0,0.28125 0.0181,0.49114 0.0629,0.98335 0.0937,1.46875 0.0214,0.33527 0.0351,0.66771 0.0625,1 0.0197,0.23986 0.0397,0.48048 0.0625,0.71875 0.0263,0.27371 0.0634,0.541 0.0937,0.8125 0.0598,0.53855 0.14344,1.06422 0.21875,1.59375 0.0174,0.1223 0.013,0.25321 0.0312,0.375 0.0282,0.18821 0.0637,0.37551 0.0937,0.5625 0.0726,0.4501 0.13514,0.90112 0.21875,1.34375 0.0178,0.0943 0.0442,0.18733 0.0625,0.28125 0.10335,0.53018 0.22498,1.04387 0.34375,1.5625 0.12242,0.5365 0.23665,1.07029 0.375,1.59375 0.0193,0.0728 0.0429,0.14623 0.0625,0.21875 0.1598,0.59302 0.35161,1.17507 0.53125,1.75 0.18292,0.58544 0.35977,1.15328 0.5625,1.71875 0.5966,1.66403 1.27608,3.24862 2.03125,4.71875 0.0106,0.0206 0.0207,0.042 0.0312,0.0625 0.43635,0.84544 0.89117,1.66477 1.375,2.4375 -0.005,-0.0299 0.005,-0.0638 0,-0.0937 0.64426,1.03072 1.3102,2.01516 2.03125,2.90625 -0.74097,-2.83455 -1.15625,-5.94748 -1.15625,-9.21875 0,-12.67617 6.1392,-23.05141 13.875,-23.6875 0.0312,0.002 0.0626,-0.003 0.0937,0 16.64236,0.61815 17.92794,31.23742 17.92794,31.23742 0,0 4.08438,-29.46534 17.69706,-31.23742 0.0312,0.002 0.0626,-0.003 0.0937,0 7.7358,0.63609 13.875,11.01133 13.875,23.6875 0,3.27127 -0.41528,6.3842 -1.15625,9.21875 0.72105,-0.89109 1.38699,-1.87553 2.03125,-2.90625 -0.005,0.03 0.005,0.0638 0,0.0937 0.48383,-0.77273 0.93865,-1.59206 1.375,-2.4375 0.0106,-0.0205 0.0207,-0.0419 0.0312,-0.0625 0.75517,-1.47013 1.43465,-3.05472 2.03125,-4.71875 0.20273,-0.56547 0.37958,-1.13331 0.5625,-1.71875 0.17964,-0.57493 0.37145,-1.15698 0.53125,-1.75 0.0196,-0.0725 0.0432,-0.14597 0.0625,-0.21875 0.13835,-0.52346 0.25258,-1.05725 0.375,-1.59375 0.1092,-0.47688 0.21631,-0.95083 0.3125,-1.4375 0.0268,-0.13621 0.0679,-0.26931 0.0937,-0.40625 0.0836,-0.44263 0.14614,-0.89365 0.21875,-1.34375 0.0301,-0.18699 0.0656,-0.37429 0.0937,-0.5625 0.0537,-0.35787 0.10968,-0.73154 0.15625,-1.09375 0.0371,-0.29005 0.0612,-0.58233 0.0937,-0.875 0.0303,-0.2715 0.0674,-0.53879 0.0937,-0.8125 0.0366,-0.38315 0.0651,-0.76905 0.0937,-1.15625 0.0137,-0.18525 0.0194,-0.37634 0.0312,-0.5625 0.0308,-0.4854 0.0757,-0.97761 0.0937,-1.46875 0.003,-0.0928 -0.003,-0.18825 0,-0.28125 0.0186,-0.58611 0.0312,-1.1878 0.0312,-1.78125 0,-4.70744 -0.58789,-9.20232 -1.65625,-13.28125 -0.39954,-1.5296 -0.87868,-3.00038 -1.40625,-4.40625 -0.70519,-1.8745 -1.49791,-3.63544 -2.40625,-5.25 -0.4532,-0.80728 -0.93884,-1.57878 -1.4375,-2.3125 -0.49866,-0.73372 -1.02191,-1.40804 -1.5625,-2.0625 -0.54576,-0.66071 -1.1026,-1.26967 -1.6875,-1.84375 -0.574,-0.56369 -1.17314,-1.08763 -1.78125,-1.5625 -0.007,-0.005 -0.0246,0.005 -0.0312,0 -0.60769,-0.47334 -1.2055,-0.93335 -1.84375,-1.3125 -0.008,-0.005 -0.0234,0.005 -0.0312,0 -0.96027,-0.56847 -1.94918,-1.03528 -2.96875,-1.375 -0.01,-0.003 -0.0216,0.003 -0.0312,0 -0.3334,-0.11034 -0.6611,-0.1967 -1,-0.28125 -0.01,-0.002 -0.0214,0.002 -0.0312,0 -0.33905,-0.0838 -0.68713,-0.16142 -1.03125,-0.21875 -0.0102,-0.002 -0.0211,0.002 -0.0312,0 -0.34406,-0.0565 -0.68253,-0.12683 -1.03125,-0.15625 -0.0103,-8.4e-4 -0.021,8.2e-4 -0.0312,0 -0.35919,-0.0295 -0.73008,-0.0312 -1.09375,-0.0312 -3.76484,0 -7.28948,1.60769 -10.34375,4.40625 -0.38262,0.34982 -0.75769,0.70716 -1.125,1.09375 -0.73289,0.77318 -1.42786,1.62025 -2.09375,2.53125 -1.33524,1.822 -2.54121,3.91969 -3.5625,6.21875 -0.25465,0.57477 -0.48602,1.14928 -0.71875,1.75 -1.16652,-3.00359 -2.6122,-5.69125 -4.28125,-7.96875 -0.66589,-0.911 -1.36086,-1.75807 -2.09375,-2.53125 -0.72896,-0.76723 -1.49385,-1.47435 -2.28125,-2.09375 -0.007,-0.005 -0.0245,0.005 -0.0312,0 -0.39025,-0.30623 -0.7843,-0.60728 -1.1875,-0.875 -0.008,-0.005 -0.0237,0.005 -0.0312,0 -0.40282,-0.26665 -0.80394,-0.52324 -1.21875,-0.75 -0.008,-0.005 -0.0229,0.005 -0.0312,0 -0.41447,-0.22569 -0.82449,-0.44057 -1.25,-0.625 -0.009,-0.004 -0.0222,0.004 -0.0312,0 -0.42525,-0.18338 -0.84591,-0.35927 -1.28125,-0.5 -0.01,-0.003 -0.0217,0.003 -0.0312,0 -0.4352,-0.13969 -0.86814,-0.27937 -1.3125,-0.375 -0.0101,-0.002 -0.0212,0.002 -0.0312,0 -0.44429,-0.0946 -0.89123,-0.16965 -1.34375,-0.21875 -0.0103,-0.001 -0.021,10e-4 -0.0312,0 -0.46296,-0.0491 -0.93565,-0.0625 -1.40625,-0.0625 z"
         style="fill:#ffffff;fill-opacity:1;stroke:none" />
      <path
         inkscape:export-ydpi="90"
         inkscape:export-xdpi="90"
         sodipodi:nodetypes="ccscscsscccscc"
         inkscape:connector-curvature="0"
         id="path3082"
         d="m 408.54911,336.29465 c -14.73398,0.26621 -41.41801,10.82011 -41.625,25.40625 0.21346,11.63547 15.64216,20.81414 34.46875,20.46875 11.05377,-0.20279 20.80142,-3.65822 26.9375,-8.8125 -2.82048,0.79284 -5.94803,1.28375 -9.21875,1.34375 -10.53479,0.19326 -19.52607,-3.90265 -22.71875,-9.71875 3.72443,0.82904 7.81634,1.3125 12.15625,1.3125 16.56854,0 30,-6.71573 30,-15 0,-8.28427 -13.43146,-15 -30,-15 z m 10.03125,9.125 c 2.61357,0.15645 5.6222,3.51156 5.6875,5.53125 0,4.14214 -6.71573,7.5 -15,7.5 -5.24769,0 -9.85067,-1.36564 -12.53125,-3.40625 3.39908,-5.4636 11.86693,-9.44197 21.84375,-9.625 z"
         style="fill:#ffffff;fill-opacity:1;stroke:none" />
    </g>
  </g>
</svg>
